G04 #@! TF.GenerationSoftware,KiCad,Pcbnew,(5.1.2)-2*
G04 #@! TF.CreationDate,2019-09-03T11:35:37+08:00*
G04 #@! TF.ProjectId,adapter,61646170-7465-4722-9e6b-696361645f70,rev?*
G04 #@! TF.SameCoordinates,Original*
G04 #@! TF.FileFunction,Soldermask,Top*
G04 #@! TF.FilePolarity,Negative*
%FSLAX46Y46*%
G04 Gerber Fmt 4.6, Leading zero omitted, Abs format (unit mm)*
G04 Created by KiCad (PCBNEW (5.1.2)-2) date 2019-09-03 11:35:37*
%MOMM*%
%LPD*%
G04 APERTURE LIST*
%ADD10C,0.100000*%
G04 APERTURE END LIST*
D10*
G36*
X96151000Y-113931000D02*
G01*
X94349000Y-113931000D01*
X94349000Y-112129000D01*
X96151000Y-112129000D01*
X96151000Y-113931000D01*
X96151000Y-113931000D01*
G37*
G36*
X97900443Y-112135519D02*
G01*
X97966627Y-112142037D01*
X98136466Y-112193557D01*
X98292991Y-112277222D01*
X98328729Y-112306552D01*
X98430186Y-112389814D01*
X98513448Y-112491271D01*
X98542778Y-112527009D01*
X98626443Y-112683534D01*
X98677963Y-112853373D01*
X98695359Y-113030000D01*
X98677963Y-113206627D01*
X98626443Y-113376466D01*
X98542778Y-113532991D01*
X98513448Y-113568729D01*
X98430186Y-113670186D01*
X98328729Y-113753448D01*
X98292991Y-113782778D01*
X98136466Y-113866443D01*
X97966627Y-113917963D01*
X97900443Y-113924481D01*
X97834260Y-113931000D01*
X97745740Y-113931000D01*
X97679557Y-113924481D01*
X97613373Y-113917963D01*
X97443534Y-113866443D01*
X97287009Y-113782778D01*
X97251271Y-113753448D01*
X97149814Y-113670186D01*
X97066552Y-113568729D01*
X97037222Y-113532991D01*
X96953557Y-113376466D01*
X96902037Y-113206627D01*
X96884641Y-113030000D01*
X96902037Y-112853373D01*
X96953557Y-112683534D01*
X97037222Y-112527009D01*
X97066552Y-112491271D01*
X97149814Y-112389814D01*
X97251271Y-112306552D01*
X97287009Y-112277222D01*
X97443534Y-112193557D01*
X97613373Y-112142037D01*
X97679557Y-112135519D01*
X97745740Y-112129000D01*
X97834260Y-112129000D01*
X97900443Y-112135519D01*
X97900443Y-112135519D01*
G37*
G36*
X100440443Y-112135519D02*
G01*
X100506627Y-112142037D01*
X100676466Y-112193557D01*
X100832991Y-112277222D01*
X100868729Y-112306552D01*
X100970186Y-112389814D01*
X101053448Y-112491271D01*
X101082778Y-112527009D01*
X101166443Y-112683534D01*
X101217963Y-112853373D01*
X101235359Y-113030000D01*
X101217963Y-113206627D01*
X101166443Y-113376466D01*
X101082778Y-113532991D01*
X101053448Y-113568729D01*
X100970186Y-113670186D01*
X100868729Y-113753448D01*
X100832991Y-113782778D01*
X100676466Y-113866443D01*
X100506627Y-113917963D01*
X100440443Y-113924481D01*
X100374260Y-113931000D01*
X100285740Y-113931000D01*
X100219557Y-113924481D01*
X100153373Y-113917963D01*
X99983534Y-113866443D01*
X99827009Y-113782778D01*
X99791271Y-113753448D01*
X99689814Y-113670186D01*
X99606552Y-113568729D01*
X99577222Y-113532991D01*
X99493557Y-113376466D01*
X99442037Y-113206627D01*
X99424641Y-113030000D01*
X99442037Y-112853373D01*
X99493557Y-112683534D01*
X99577222Y-112527009D01*
X99606552Y-112491271D01*
X99689814Y-112389814D01*
X99791271Y-112306552D01*
X99827009Y-112277222D01*
X99983534Y-112193557D01*
X100153373Y-112142037D01*
X100219557Y-112135519D01*
X100285740Y-112129000D01*
X100374260Y-112129000D01*
X100440443Y-112135519D01*
X100440443Y-112135519D01*
G37*
G36*
X102980443Y-112135519D02*
G01*
X103046627Y-112142037D01*
X103216466Y-112193557D01*
X103372991Y-112277222D01*
X103408729Y-112306552D01*
X103510186Y-112389814D01*
X103593448Y-112491271D01*
X103622778Y-112527009D01*
X103706443Y-112683534D01*
X103757963Y-112853373D01*
X103775359Y-113030000D01*
X103757963Y-113206627D01*
X103706443Y-113376466D01*
X103622778Y-113532991D01*
X103593448Y-113568729D01*
X103510186Y-113670186D01*
X103408729Y-113753448D01*
X103372991Y-113782778D01*
X103216466Y-113866443D01*
X103046627Y-113917963D01*
X102980443Y-113924481D01*
X102914260Y-113931000D01*
X102825740Y-113931000D01*
X102759557Y-113924481D01*
X102693373Y-113917963D01*
X102523534Y-113866443D01*
X102367009Y-113782778D01*
X102331271Y-113753448D01*
X102229814Y-113670186D01*
X102146552Y-113568729D01*
X102117222Y-113532991D01*
X102033557Y-113376466D01*
X101982037Y-113206627D01*
X101964641Y-113030000D01*
X101982037Y-112853373D01*
X102033557Y-112683534D01*
X102117222Y-112527009D01*
X102146552Y-112491271D01*
X102229814Y-112389814D01*
X102331271Y-112306552D01*
X102367009Y-112277222D01*
X102523534Y-112193557D01*
X102693373Y-112142037D01*
X102759557Y-112135519D01*
X102825740Y-112129000D01*
X102914260Y-112129000D01*
X102980443Y-112135519D01*
X102980443Y-112135519D01*
G37*
G36*
X105520443Y-112135519D02*
G01*
X105586627Y-112142037D01*
X105756466Y-112193557D01*
X105912991Y-112277222D01*
X105948729Y-112306552D01*
X106050186Y-112389814D01*
X106133448Y-112491271D01*
X106162778Y-112527009D01*
X106246443Y-112683534D01*
X106297963Y-112853373D01*
X106315359Y-113030000D01*
X106297963Y-113206627D01*
X106246443Y-113376466D01*
X106162778Y-113532991D01*
X106133448Y-113568729D01*
X106050186Y-113670186D01*
X105948729Y-113753448D01*
X105912991Y-113782778D01*
X105756466Y-113866443D01*
X105586627Y-113917963D01*
X105520443Y-113924481D01*
X105454260Y-113931000D01*
X105365740Y-113931000D01*
X105299557Y-113924481D01*
X105233373Y-113917963D01*
X105063534Y-113866443D01*
X104907009Y-113782778D01*
X104871271Y-113753448D01*
X104769814Y-113670186D01*
X104686552Y-113568729D01*
X104657222Y-113532991D01*
X104573557Y-113376466D01*
X104522037Y-113206627D01*
X104504641Y-113030000D01*
X104522037Y-112853373D01*
X104573557Y-112683534D01*
X104657222Y-112527009D01*
X104686552Y-112491271D01*
X104769814Y-112389814D01*
X104871271Y-112306552D01*
X104907009Y-112277222D01*
X105063534Y-112193557D01*
X105233373Y-112142037D01*
X105299557Y-112135519D01*
X105365740Y-112129000D01*
X105454260Y-112129000D01*
X105520443Y-112135519D01*
X105520443Y-112135519D01*
G37*
G36*
X108060443Y-112135519D02*
G01*
X108126627Y-112142037D01*
X108296466Y-112193557D01*
X108452991Y-112277222D01*
X108488729Y-112306552D01*
X108590186Y-112389814D01*
X108673448Y-112491271D01*
X108702778Y-112527009D01*
X108786443Y-112683534D01*
X108837963Y-112853373D01*
X108855359Y-113030000D01*
X108837963Y-113206627D01*
X108786443Y-113376466D01*
X108702778Y-113532991D01*
X108673448Y-113568729D01*
X108590186Y-113670186D01*
X108488729Y-113753448D01*
X108452991Y-113782778D01*
X108296466Y-113866443D01*
X108126627Y-113917963D01*
X108060443Y-113924481D01*
X107994260Y-113931000D01*
X107905740Y-113931000D01*
X107839557Y-113924481D01*
X107773373Y-113917963D01*
X107603534Y-113866443D01*
X107447009Y-113782778D01*
X107411271Y-113753448D01*
X107309814Y-113670186D01*
X107226552Y-113568729D01*
X107197222Y-113532991D01*
X107113557Y-113376466D01*
X107062037Y-113206627D01*
X107044641Y-113030000D01*
X107062037Y-112853373D01*
X107113557Y-112683534D01*
X107197222Y-112527009D01*
X107226552Y-112491271D01*
X107309814Y-112389814D01*
X107411271Y-112306552D01*
X107447009Y-112277222D01*
X107603534Y-112193557D01*
X107773373Y-112142037D01*
X107839557Y-112135519D01*
X107905740Y-112129000D01*
X107994260Y-112129000D01*
X108060443Y-112135519D01*
X108060443Y-112135519D01*
G37*
G36*
X110600443Y-112135519D02*
G01*
X110666627Y-112142037D01*
X110836466Y-112193557D01*
X110992991Y-112277222D01*
X111028729Y-112306552D01*
X111130186Y-112389814D01*
X111213448Y-112491271D01*
X111242778Y-112527009D01*
X111326443Y-112683534D01*
X111377963Y-112853373D01*
X111395359Y-113030000D01*
X111377963Y-113206627D01*
X111326443Y-113376466D01*
X111242778Y-113532991D01*
X111213448Y-113568729D01*
X111130186Y-113670186D01*
X111028729Y-113753448D01*
X110992991Y-113782778D01*
X110836466Y-113866443D01*
X110666627Y-113917963D01*
X110600443Y-113924481D01*
X110534260Y-113931000D01*
X110445740Y-113931000D01*
X110379557Y-113924481D01*
X110313373Y-113917963D01*
X110143534Y-113866443D01*
X109987009Y-113782778D01*
X109951271Y-113753448D01*
X109849814Y-113670186D01*
X109766552Y-113568729D01*
X109737222Y-113532991D01*
X109653557Y-113376466D01*
X109602037Y-113206627D01*
X109584641Y-113030000D01*
X109602037Y-112853373D01*
X109653557Y-112683534D01*
X109737222Y-112527009D01*
X109766552Y-112491271D01*
X109849814Y-112389814D01*
X109951271Y-112306552D01*
X109987009Y-112277222D01*
X110143534Y-112193557D01*
X110313373Y-112142037D01*
X110379557Y-112135519D01*
X110445740Y-112129000D01*
X110534260Y-112129000D01*
X110600443Y-112135519D01*
X110600443Y-112135519D01*
G37*
G36*
X113140443Y-112135519D02*
G01*
X113206627Y-112142037D01*
X113376466Y-112193557D01*
X113532991Y-112277222D01*
X113568729Y-112306552D01*
X113670186Y-112389814D01*
X113753448Y-112491271D01*
X113782778Y-112527009D01*
X113866443Y-112683534D01*
X113917963Y-112853373D01*
X113935359Y-113030000D01*
X113917963Y-113206627D01*
X113866443Y-113376466D01*
X113782778Y-113532991D01*
X113753448Y-113568729D01*
X113670186Y-113670186D01*
X113568729Y-113753448D01*
X113532991Y-113782778D01*
X113376466Y-113866443D01*
X113206627Y-113917963D01*
X113140443Y-113924481D01*
X113074260Y-113931000D01*
X112985740Y-113931000D01*
X112919557Y-113924481D01*
X112853373Y-113917963D01*
X112683534Y-113866443D01*
X112527009Y-113782778D01*
X112491271Y-113753448D01*
X112389814Y-113670186D01*
X112306552Y-113568729D01*
X112277222Y-113532991D01*
X112193557Y-113376466D01*
X112142037Y-113206627D01*
X112124641Y-113030000D01*
X112142037Y-112853373D01*
X112193557Y-112683534D01*
X112277222Y-112527009D01*
X112306552Y-112491271D01*
X112389814Y-112389814D01*
X112491271Y-112306552D01*
X112527009Y-112277222D01*
X112683534Y-112193557D01*
X112853373Y-112142037D01*
X112919557Y-112135519D01*
X112985740Y-112129000D01*
X113074260Y-112129000D01*
X113140443Y-112135519D01*
X113140443Y-112135519D01*
G37*
G36*
X115680443Y-112135519D02*
G01*
X115746627Y-112142037D01*
X115916466Y-112193557D01*
X116072991Y-112277222D01*
X116108729Y-112306552D01*
X116210186Y-112389814D01*
X116293448Y-112491271D01*
X116322778Y-112527009D01*
X116406443Y-112683534D01*
X116457963Y-112853373D01*
X116475359Y-113030000D01*
X116457963Y-113206627D01*
X116406443Y-113376466D01*
X116322778Y-113532991D01*
X116293448Y-113568729D01*
X116210186Y-113670186D01*
X116108729Y-113753448D01*
X116072991Y-113782778D01*
X115916466Y-113866443D01*
X115746627Y-113917963D01*
X115680443Y-113924481D01*
X115614260Y-113931000D01*
X115525740Y-113931000D01*
X115459557Y-113924481D01*
X115393373Y-113917963D01*
X115223534Y-113866443D01*
X115067009Y-113782778D01*
X115031271Y-113753448D01*
X114929814Y-113670186D01*
X114846552Y-113568729D01*
X114817222Y-113532991D01*
X114733557Y-113376466D01*
X114682037Y-113206627D01*
X114664641Y-113030000D01*
X114682037Y-112853373D01*
X114733557Y-112683534D01*
X114817222Y-112527009D01*
X114846552Y-112491271D01*
X114929814Y-112389814D01*
X115031271Y-112306552D01*
X115067009Y-112277222D01*
X115223534Y-112193557D01*
X115393373Y-112142037D01*
X115459557Y-112135519D01*
X115525740Y-112129000D01*
X115614260Y-112129000D01*
X115680443Y-112135519D01*
X115680443Y-112135519D01*
G37*
G36*
X118220443Y-112135519D02*
G01*
X118286627Y-112142037D01*
X118456466Y-112193557D01*
X118612991Y-112277222D01*
X118648729Y-112306552D01*
X118750186Y-112389814D01*
X118833448Y-112491271D01*
X118862778Y-112527009D01*
X118946443Y-112683534D01*
X118997963Y-112853373D01*
X119015359Y-113030000D01*
X118997963Y-113206627D01*
X118946443Y-113376466D01*
X118862778Y-113532991D01*
X118833448Y-113568729D01*
X118750186Y-113670186D01*
X118648729Y-113753448D01*
X118612991Y-113782778D01*
X118456466Y-113866443D01*
X118286627Y-113917963D01*
X118220443Y-113924481D01*
X118154260Y-113931000D01*
X118065740Y-113931000D01*
X117999557Y-113924481D01*
X117933373Y-113917963D01*
X117763534Y-113866443D01*
X117607009Y-113782778D01*
X117571271Y-113753448D01*
X117469814Y-113670186D01*
X117386552Y-113568729D01*
X117357222Y-113532991D01*
X117273557Y-113376466D01*
X117222037Y-113206627D01*
X117204641Y-113030000D01*
X117222037Y-112853373D01*
X117273557Y-112683534D01*
X117357222Y-112527009D01*
X117386552Y-112491271D01*
X117469814Y-112389814D01*
X117571271Y-112306552D01*
X117607009Y-112277222D01*
X117763534Y-112193557D01*
X117933373Y-112142037D01*
X117999557Y-112135519D01*
X118065740Y-112129000D01*
X118154260Y-112129000D01*
X118220443Y-112135519D01*
X118220443Y-112135519D01*
G37*
G36*
X123300443Y-112135519D02*
G01*
X123366627Y-112142037D01*
X123536466Y-112193557D01*
X123692991Y-112277222D01*
X123728729Y-112306552D01*
X123830186Y-112389814D01*
X123913448Y-112491271D01*
X123942778Y-112527009D01*
X124026443Y-112683534D01*
X124077963Y-112853373D01*
X124095359Y-113030000D01*
X124077963Y-113206627D01*
X124026443Y-113376466D01*
X123942778Y-113532991D01*
X123913448Y-113568729D01*
X123830186Y-113670186D01*
X123728729Y-113753448D01*
X123692991Y-113782778D01*
X123536466Y-113866443D01*
X123366627Y-113917963D01*
X123300443Y-113924481D01*
X123234260Y-113931000D01*
X123145740Y-113931000D01*
X123079557Y-113924481D01*
X123013373Y-113917963D01*
X122843534Y-113866443D01*
X122687009Y-113782778D01*
X122651271Y-113753448D01*
X122549814Y-113670186D01*
X122466552Y-113568729D01*
X122437222Y-113532991D01*
X122353557Y-113376466D01*
X122302037Y-113206627D01*
X122284641Y-113030000D01*
X122302037Y-112853373D01*
X122353557Y-112683534D01*
X122437222Y-112527009D01*
X122466552Y-112491271D01*
X122549814Y-112389814D01*
X122651271Y-112306552D01*
X122687009Y-112277222D01*
X122843534Y-112193557D01*
X123013373Y-112142037D01*
X123079557Y-112135519D01*
X123145740Y-112129000D01*
X123234260Y-112129000D01*
X123300443Y-112135519D01*
X123300443Y-112135519D01*
G37*
G36*
X120760443Y-112135519D02*
G01*
X120826627Y-112142037D01*
X120996466Y-112193557D01*
X121152991Y-112277222D01*
X121188729Y-112306552D01*
X121290186Y-112389814D01*
X121373448Y-112491271D01*
X121402778Y-112527009D01*
X121486443Y-112683534D01*
X121537963Y-112853373D01*
X121555359Y-113030000D01*
X121537963Y-113206627D01*
X121486443Y-113376466D01*
X121402778Y-113532991D01*
X121373448Y-113568729D01*
X121290186Y-113670186D01*
X121188729Y-113753448D01*
X121152991Y-113782778D01*
X120996466Y-113866443D01*
X120826627Y-113917963D01*
X120760443Y-113924481D01*
X120694260Y-113931000D01*
X120605740Y-113931000D01*
X120539557Y-113924481D01*
X120473373Y-113917963D01*
X120303534Y-113866443D01*
X120147009Y-113782778D01*
X120111271Y-113753448D01*
X120009814Y-113670186D01*
X119926552Y-113568729D01*
X119897222Y-113532991D01*
X119813557Y-113376466D01*
X119762037Y-113206627D01*
X119744641Y-113030000D01*
X119762037Y-112853373D01*
X119813557Y-112683534D01*
X119897222Y-112527009D01*
X119926552Y-112491271D01*
X120009814Y-112389814D01*
X120111271Y-112306552D01*
X120147009Y-112277222D01*
X120303534Y-112193557D01*
X120473373Y-112142037D01*
X120539557Y-112135519D01*
X120605740Y-112129000D01*
X120694260Y-112129000D01*
X120760443Y-112135519D01*
X120760443Y-112135519D01*
G37*
G36*
X83665000Y-102040000D02*
G01*
X78895000Y-102040000D01*
X78895000Y-101270000D01*
X83665000Y-101270000D01*
X83665000Y-102040000D01*
X83665000Y-102040000D01*
G37*
G36*
X78100000Y-100950000D02*
G01*
X77580000Y-100950000D01*
X77580000Y-99710000D01*
X78100000Y-99710000D01*
X78100000Y-100950000D01*
X78100000Y-100950000D01*
G37*
G36*
X84980000Y-100950000D02*
G01*
X84460000Y-100950000D01*
X84460000Y-99710000D01*
X84980000Y-99710000D01*
X84980000Y-100950000D01*
X84980000Y-100950000D01*
G37*
G36*
X83665000Y-99390000D02*
G01*
X78895000Y-99390000D01*
X78895000Y-98620000D01*
X83665000Y-98620000D01*
X83665000Y-99390000D01*
X83665000Y-99390000D01*
G37*
G36*
X97900443Y-88005519D02*
G01*
X97966627Y-88012037D01*
X98136466Y-88063557D01*
X98292991Y-88147222D01*
X98328729Y-88176552D01*
X98430186Y-88259814D01*
X98513448Y-88361271D01*
X98542778Y-88397009D01*
X98626443Y-88553534D01*
X98677963Y-88723373D01*
X98695359Y-88900000D01*
X98677963Y-89076627D01*
X98626443Y-89246466D01*
X98542778Y-89402991D01*
X98513448Y-89438729D01*
X98430186Y-89540186D01*
X98328729Y-89623448D01*
X98292991Y-89652778D01*
X98136466Y-89736443D01*
X97966627Y-89787963D01*
X97900443Y-89794481D01*
X97834260Y-89801000D01*
X97745740Y-89801000D01*
X97679557Y-89794481D01*
X97613373Y-89787963D01*
X97443534Y-89736443D01*
X97287009Y-89652778D01*
X97251271Y-89623448D01*
X97149814Y-89540186D01*
X97066552Y-89438729D01*
X97037222Y-89402991D01*
X96953557Y-89246466D01*
X96902037Y-89076627D01*
X96884641Y-88900000D01*
X96902037Y-88723373D01*
X96953557Y-88553534D01*
X97037222Y-88397009D01*
X97066552Y-88361271D01*
X97149814Y-88259814D01*
X97251271Y-88176552D01*
X97287009Y-88147222D01*
X97443534Y-88063557D01*
X97613373Y-88012037D01*
X97679557Y-88005519D01*
X97745740Y-87999000D01*
X97834260Y-87999000D01*
X97900443Y-88005519D01*
X97900443Y-88005519D01*
G37*
G36*
X124091000Y-89801000D02*
G01*
X122289000Y-89801000D01*
X122289000Y-87999000D01*
X124091000Y-87999000D01*
X124091000Y-89801000D01*
X124091000Y-89801000D01*
G37*
G36*
X120760443Y-88005519D02*
G01*
X120826627Y-88012037D01*
X120996466Y-88063557D01*
X121152991Y-88147222D01*
X121188729Y-88176552D01*
X121290186Y-88259814D01*
X121373448Y-88361271D01*
X121402778Y-88397009D01*
X121486443Y-88553534D01*
X121537963Y-88723373D01*
X121555359Y-88900000D01*
X121537963Y-89076627D01*
X121486443Y-89246466D01*
X121402778Y-89402991D01*
X121373448Y-89438729D01*
X121290186Y-89540186D01*
X121188729Y-89623448D01*
X121152991Y-89652778D01*
X120996466Y-89736443D01*
X120826627Y-89787963D01*
X120760443Y-89794481D01*
X120694260Y-89801000D01*
X120605740Y-89801000D01*
X120539557Y-89794481D01*
X120473373Y-89787963D01*
X120303534Y-89736443D01*
X120147009Y-89652778D01*
X120111271Y-89623448D01*
X120009814Y-89540186D01*
X119926552Y-89438729D01*
X119897222Y-89402991D01*
X119813557Y-89246466D01*
X119762037Y-89076627D01*
X119744641Y-88900000D01*
X119762037Y-88723373D01*
X119813557Y-88553534D01*
X119897222Y-88397009D01*
X119926552Y-88361271D01*
X120009814Y-88259814D01*
X120111271Y-88176552D01*
X120147009Y-88147222D01*
X120303534Y-88063557D01*
X120473373Y-88012037D01*
X120539557Y-88005519D01*
X120605740Y-87999000D01*
X120694260Y-87999000D01*
X120760443Y-88005519D01*
X120760443Y-88005519D01*
G37*
G36*
X118220443Y-88005519D02*
G01*
X118286627Y-88012037D01*
X118456466Y-88063557D01*
X118612991Y-88147222D01*
X118648729Y-88176552D01*
X118750186Y-88259814D01*
X118833448Y-88361271D01*
X118862778Y-88397009D01*
X118946443Y-88553534D01*
X118997963Y-88723373D01*
X119015359Y-88900000D01*
X118997963Y-89076627D01*
X118946443Y-89246466D01*
X118862778Y-89402991D01*
X118833448Y-89438729D01*
X118750186Y-89540186D01*
X118648729Y-89623448D01*
X118612991Y-89652778D01*
X118456466Y-89736443D01*
X118286627Y-89787963D01*
X118220443Y-89794481D01*
X118154260Y-89801000D01*
X118065740Y-89801000D01*
X117999557Y-89794481D01*
X117933373Y-89787963D01*
X117763534Y-89736443D01*
X117607009Y-89652778D01*
X117571271Y-89623448D01*
X117469814Y-89540186D01*
X117386552Y-89438729D01*
X117357222Y-89402991D01*
X117273557Y-89246466D01*
X117222037Y-89076627D01*
X117204641Y-88900000D01*
X117222037Y-88723373D01*
X117273557Y-88553534D01*
X117357222Y-88397009D01*
X117386552Y-88361271D01*
X117469814Y-88259814D01*
X117571271Y-88176552D01*
X117607009Y-88147222D01*
X117763534Y-88063557D01*
X117933373Y-88012037D01*
X117999557Y-88005519D01*
X118065740Y-87999000D01*
X118154260Y-87999000D01*
X118220443Y-88005519D01*
X118220443Y-88005519D01*
G37*
G36*
X115680443Y-88005519D02*
G01*
X115746627Y-88012037D01*
X115916466Y-88063557D01*
X116072991Y-88147222D01*
X116108729Y-88176552D01*
X116210186Y-88259814D01*
X116293448Y-88361271D01*
X116322778Y-88397009D01*
X116406443Y-88553534D01*
X116457963Y-88723373D01*
X116475359Y-88900000D01*
X116457963Y-89076627D01*
X116406443Y-89246466D01*
X116322778Y-89402991D01*
X116293448Y-89438729D01*
X116210186Y-89540186D01*
X116108729Y-89623448D01*
X116072991Y-89652778D01*
X115916466Y-89736443D01*
X115746627Y-89787963D01*
X115680443Y-89794481D01*
X115614260Y-89801000D01*
X115525740Y-89801000D01*
X115459557Y-89794481D01*
X115393373Y-89787963D01*
X115223534Y-89736443D01*
X115067009Y-89652778D01*
X115031271Y-89623448D01*
X114929814Y-89540186D01*
X114846552Y-89438729D01*
X114817222Y-89402991D01*
X114733557Y-89246466D01*
X114682037Y-89076627D01*
X114664641Y-88900000D01*
X114682037Y-88723373D01*
X114733557Y-88553534D01*
X114817222Y-88397009D01*
X114846552Y-88361271D01*
X114929814Y-88259814D01*
X115031271Y-88176552D01*
X115067009Y-88147222D01*
X115223534Y-88063557D01*
X115393373Y-88012037D01*
X115459557Y-88005519D01*
X115525740Y-87999000D01*
X115614260Y-87999000D01*
X115680443Y-88005519D01*
X115680443Y-88005519D01*
G37*
G36*
X113140443Y-88005519D02*
G01*
X113206627Y-88012037D01*
X113376466Y-88063557D01*
X113532991Y-88147222D01*
X113568729Y-88176552D01*
X113670186Y-88259814D01*
X113753448Y-88361271D01*
X113782778Y-88397009D01*
X113866443Y-88553534D01*
X113917963Y-88723373D01*
X113935359Y-88900000D01*
X113917963Y-89076627D01*
X113866443Y-89246466D01*
X113782778Y-89402991D01*
X113753448Y-89438729D01*
X113670186Y-89540186D01*
X113568729Y-89623448D01*
X113532991Y-89652778D01*
X113376466Y-89736443D01*
X113206627Y-89787963D01*
X113140443Y-89794481D01*
X113074260Y-89801000D01*
X112985740Y-89801000D01*
X112919557Y-89794481D01*
X112853373Y-89787963D01*
X112683534Y-89736443D01*
X112527009Y-89652778D01*
X112491271Y-89623448D01*
X112389814Y-89540186D01*
X112306552Y-89438729D01*
X112277222Y-89402991D01*
X112193557Y-89246466D01*
X112142037Y-89076627D01*
X112124641Y-88900000D01*
X112142037Y-88723373D01*
X112193557Y-88553534D01*
X112277222Y-88397009D01*
X112306552Y-88361271D01*
X112389814Y-88259814D01*
X112491271Y-88176552D01*
X112527009Y-88147222D01*
X112683534Y-88063557D01*
X112853373Y-88012037D01*
X112919557Y-88005519D01*
X112985740Y-87999000D01*
X113074260Y-87999000D01*
X113140443Y-88005519D01*
X113140443Y-88005519D01*
G37*
G36*
X110600443Y-88005519D02*
G01*
X110666627Y-88012037D01*
X110836466Y-88063557D01*
X110992991Y-88147222D01*
X111028729Y-88176552D01*
X111130186Y-88259814D01*
X111213448Y-88361271D01*
X111242778Y-88397009D01*
X111326443Y-88553534D01*
X111377963Y-88723373D01*
X111395359Y-88900000D01*
X111377963Y-89076627D01*
X111326443Y-89246466D01*
X111242778Y-89402991D01*
X111213448Y-89438729D01*
X111130186Y-89540186D01*
X111028729Y-89623448D01*
X110992991Y-89652778D01*
X110836466Y-89736443D01*
X110666627Y-89787963D01*
X110600443Y-89794481D01*
X110534260Y-89801000D01*
X110445740Y-89801000D01*
X110379557Y-89794481D01*
X110313373Y-89787963D01*
X110143534Y-89736443D01*
X109987009Y-89652778D01*
X109951271Y-89623448D01*
X109849814Y-89540186D01*
X109766552Y-89438729D01*
X109737222Y-89402991D01*
X109653557Y-89246466D01*
X109602037Y-89076627D01*
X109584641Y-88900000D01*
X109602037Y-88723373D01*
X109653557Y-88553534D01*
X109737222Y-88397009D01*
X109766552Y-88361271D01*
X109849814Y-88259814D01*
X109951271Y-88176552D01*
X109987009Y-88147222D01*
X110143534Y-88063557D01*
X110313373Y-88012037D01*
X110379557Y-88005519D01*
X110445740Y-87999000D01*
X110534260Y-87999000D01*
X110600443Y-88005519D01*
X110600443Y-88005519D01*
G37*
G36*
X108060443Y-88005519D02*
G01*
X108126627Y-88012037D01*
X108296466Y-88063557D01*
X108452991Y-88147222D01*
X108488729Y-88176552D01*
X108590186Y-88259814D01*
X108673448Y-88361271D01*
X108702778Y-88397009D01*
X108786443Y-88553534D01*
X108837963Y-88723373D01*
X108855359Y-88900000D01*
X108837963Y-89076627D01*
X108786443Y-89246466D01*
X108702778Y-89402991D01*
X108673448Y-89438729D01*
X108590186Y-89540186D01*
X108488729Y-89623448D01*
X108452991Y-89652778D01*
X108296466Y-89736443D01*
X108126627Y-89787963D01*
X108060443Y-89794481D01*
X107994260Y-89801000D01*
X107905740Y-89801000D01*
X107839557Y-89794481D01*
X107773373Y-89787963D01*
X107603534Y-89736443D01*
X107447009Y-89652778D01*
X107411271Y-89623448D01*
X107309814Y-89540186D01*
X107226552Y-89438729D01*
X107197222Y-89402991D01*
X107113557Y-89246466D01*
X107062037Y-89076627D01*
X107044641Y-88900000D01*
X107062037Y-88723373D01*
X107113557Y-88553534D01*
X107197222Y-88397009D01*
X107226552Y-88361271D01*
X107309814Y-88259814D01*
X107411271Y-88176552D01*
X107447009Y-88147222D01*
X107603534Y-88063557D01*
X107773373Y-88012037D01*
X107839557Y-88005519D01*
X107905740Y-87999000D01*
X107994260Y-87999000D01*
X108060443Y-88005519D01*
X108060443Y-88005519D01*
G37*
G36*
X105520443Y-88005519D02*
G01*
X105586627Y-88012037D01*
X105756466Y-88063557D01*
X105912991Y-88147222D01*
X105948729Y-88176552D01*
X106050186Y-88259814D01*
X106133448Y-88361271D01*
X106162778Y-88397009D01*
X106246443Y-88553534D01*
X106297963Y-88723373D01*
X106315359Y-88900000D01*
X106297963Y-89076627D01*
X106246443Y-89246466D01*
X106162778Y-89402991D01*
X106133448Y-89438729D01*
X106050186Y-89540186D01*
X105948729Y-89623448D01*
X105912991Y-89652778D01*
X105756466Y-89736443D01*
X105586627Y-89787963D01*
X105520443Y-89794481D01*
X105454260Y-89801000D01*
X105365740Y-89801000D01*
X105299557Y-89794481D01*
X105233373Y-89787963D01*
X105063534Y-89736443D01*
X104907009Y-89652778D01*
X104871271Y-89623448D01*
X104769814Y-89540186D01*
X104686552Y-89438729D01*
X104657222Y-89402991D01*
X104573557Y-89246466D01*
X104522037Y-89076627D01*
X104504641Y-88900000D01*
X104522037Y-88723373D01*
X104573557Y-88553534D01*
X104657222Y-88397009D01*
X104686552Y-88361271D01*
X104769814Y-88259814D01*
X104871271Y-88176552D01*
X104907009Y-88147222D01*
X105063534Y-88063557D01*
X105233373Y-88012037D01*
X105299557Y-88005519D01*
X105365740Y-87999000D01*
X105454260Y-87999000D01*
X105520443Y-88005519D01*
X105520443Y-88005519D01*
G37*
G36*
X102980443Y-88005519D02*
G01*
X103046627Y-88012037D01*
X103216466Y-88063557D01*
X103372991Y-88147222D01*
X103408729Y-88176552D01*
X103510186Y-88259814D01*
X103593448Y-88361271D01*
X103622778Y-88397009D01*
X103706443Y-88553534D01*
X103757963Y-88723373D01*
X103775359Y-88900000D01*
X103757963Y-89076627D01*
X103706443Y-89246466D01*
X103622778Y-89402991D01*
X103593448Y-89438729D01*
X103510186Y-89540186D01*
X103408729Y-89623448D01*
X103372991Y-89652778D01*
X103216466Y-89736443D01*
X103046627Y-89787963D01*
X102980443Y-89794481D01*
X102914260Y-89801000D01*
X102825740Y-89801000D01*
X102759557Y-89794481D01*
X102693373Y-89787963D01*
X102523534Y-89736443D01*
X102367009Y-89652778D01*
X102331271Y-89623448D01*
X102229814Y-89540186D01*
X102146552Y-89438729D01*
X102117222Y-89402991D01*
X102033557Y-89246466D01*
X101982037Y-89076627D01*
X101964641Y-88900000D01*
X101982037Y-88723373D01*
X102033557Y-88553534D01*
X102117222Y-88397009D01*
X102146552Y-88361271D01*
X102229814Y-88259814D01*
X102331271Y-88176552D01*
X102367009Y-88147222D01*
X102523534Y-88063557D01*
X102693373Y-88012037D01*
X102759557Y-88005519D01*
X102825740Y-87999000D01*
X102914260Y-87999000D01*
X102980443Y-88005519D01*
X102980443Y-88005519D01*
G37*
G36*
X100440443Y-88005519D02*
G01*
X100506627Y-88012037D01*
X100676466Y-88063557D01*
X100832991Y-88147222D01*
X100868729Y-88176552D01*
X100970186Y-88259814D01*
X101053448Y-88361271D01*
X101082778Y-88397009D01*
X101166443Y-88553534D01*
X101217963Y-88723373D01*
X101235359Y-88900000D01*
X101217963Y-89076627D01*
X101166443Y-89246466D01*
X101082778Y-89402991D01*
X101053448Y-89438729D01*
X100970186Y-89540186D01*
X100868729Y-89623448D01*
X100832991Y-89652778D01*
X100676466Y-89736443D01*
X100506627Y-89787963D01*
X100440443Y-89794481D01*
X100374260Y-89801000D01*
X100285740Y-89801000D01*
X100219557Y-89794481D01*
X100153373Y-89787963D01*
X99983534Y-89736443D01*
X99827009Y-89652778D01*
X99791271Y-89623448D01*
X99689814Y-89540186D01*
X99606552Y-89438729D01*
X99577222Y-89402991D01*
X99493557Y-89246466D01*
X99442037Y-89076627D01*
X99424641Y-88900000D01*
X99442037Y-88723373D01*
X99493557Y-88553534D01*
X99577222Y-88397009D01*
X99606552Y-88361271D01*
X99689814Y-88259814D01*
X99791271Y-88176552D01*
X99827009Y-88147222D01*
X99983534Y-88063557D01*
X100153373Y-88012037D01*
X100219557Y-88005519D01*
X100285740Y-87999000D01*
X100374260Y-87999000D01*
X100440443Y-88005519D01*
X100440443Y-88005519D01*
G37*
G36*
X95360443Y-88005519D02*
G01*
X95426627Y-88012037D01*
X95596466Y-88063557D01*
X95752991Y-88147222D01*
X95788729Y-88176552D01*
X95890186Y-88259814D01*
X95973448Y-88361271D01*
X96002778Y-88397009D01*
X96086443Y-88553534D01*
X96137963Y-88723373D01*
X96155359Y-88900000D01*
X96137963Y-89076627D01*
X96086443Y-89246466D01*
X96002778Y-89402991D01*
X95973448Y-89438729D01*
X95890186Y-89540186D01*
X95788729Y-89623448D01*
X95752991Y-89652778D01*
X95596466Y-89736443D01*
X95426627Y-89787963D01*
X95360443Y-89794481D01*
X95294260Y-89801000D01*
X95205740Y-89801000D01*
X95139557Y-89794481D01*
X95073373Y-89787963D01*
X94903534Y-89736443D01*
X94747009Y-89652778D01*
X94711271Y-89623448D01*
X94609814Y-89540186D01*
X94526552Y-89438729D01*
X94497222Y-89402991D01*
X94413557Y-89246466D01*
X94362037Y-89076627D01*
X94344641Y-88900000D01*
X94362037Y-88723373D01*
X94413557Y-88553534D01*
X94497222Y-88397009D01*
X94526552Y-88361271D01*
X94609814Y-88259814D01*
X94711271Y-88176552D01*
X94747009Y-88147222D01*
X94903534Y-88063557D01*
X95073373Y-88012037D01*
X95139557Y-88005519D01*
X95205740Y-87999000D01*
X95294260Y-87999000D01*
X95360443Y-88005519D01*
X95360443Y-88005519D01*
G37*
M02*
