G04 #@! TF.GenerationSoftware,KiCad,Pcbnew,(5.1.2)-2*
G04 #@! TF.CreationDate,2019-09-03T11:35:37+08:00*
G04 #@! TF.ProjectId,adapter,61646170-7465-4722-9e6b-696361645f70,rev?*
G04 #@! TF.SameCoordinates,Original*
G04 #@! TF.FileFunction,Copper,L1,Top*
G04 #@! TF.FilePolarity,Positive*
%FSLAX46Y46*%
G04 Gerber Fmt 4.6, Leading zero omitted, Abs format (unit mm)*
G04 Created by KiCad (PCBNEW (5.1.2)-2) date 2019-09-03 11:35:37*
%MOMM*%
%LPD*%
G04 APERTURE LIST*
%ADD10R,0.230000X0.630000*%
%ADD11R,0.380000X1.100000*%
%ADD12R,1.700000X1.700000*%
%ADD13O,1.700000X1.700000*%
%ADD14C,0.220000*%
G04 APERTURE END LIST*
D10*
X81480000Y-101655000D03*
X81080000Y-101655000D03*
X81880000Y-101655000D03*
X82280000Y-101655000D03*
X82680000Y-101655000D03*
X83080000Y-101655000D03*
X83480000Y-101655000D03*
X80680000Y-101655000D03*
X80280000Y-101655000D03*
X79880000Y-101655000D03*
X79480000Y-101655000D03*
X79080000Y-101655000D03*
X82680000Y-99005000D03*
X83480000Y-99005000D03*
X81480000Y-99005000D03*
X83080000Y-99005000D03*
X80680000Y-99005000D03*
X79880000Y-99005000D03*
X79480000Y-99005000D03*
X81080000Y-99005000D03*
X82280000Y-99005000D03*
X80280000Y-99005000D03*
X81880000Y-99005000D03*
X79080000Y-99005000D03*
D11*
X84720000Y-100330000D03*
X77840000Y-100330000D03*
D12*
X123190000Y-88900000D03*
D13*
X120650000Y-88900000D03*
X118110000Y-88900000D03*
X115570000Y-88900000D03*
X113030000Y-88900000D03*
X110490000Y-88900000D03*
X107950000Y-88900000D03*
X105410000Y-88900000D03*
X102870000Y-88900000D03*
X100330000Y-88900000D03*
X97790000Y-88900000D03*
X95250000Y-88900000D03*
X123190000Y-113030000D03*
X120650000Y-113030000D03*
X118110000Y-113030000D03*
X115570000Y-113030000D03*
X113030000Y-113030000D03*
X110490000Y-113030000D03*
X107950000Y-113030000D03*
X105410000Y-113030000D03*
X102870000Y-113030000D03*
X100330000Y-113030000D03*
X97790000Y-113030000D03*
D12*
X95250000Y-113030000D03*
D14*
X83525000Y-88900000D02*
X95250000Y-88900000D01*
X79080000Y-99115000D02*
X79080000Y-93345000D01*
X79080000Y-93345000D02*
X83525000Y-88900000D01*
X113030000Y-93870000D02*
X113030000Y-88900000D01*
X112150000Y-94750000D02*
X113030000Y-93870000D01*
X84275000Y-94750000D02*
X112150000Y-94750000D01*
X81880000Y-99115000D02*
X81880000Y-97145000D01*
X81880000Y-97145000D02*
X84275000Y-94750000D01*
X80280000Y-99115000D02*
X80280000Y-95380000D01*
X102870000Y-90102081D02*
X102875000Y-90107081D01*
X102870000Y-88900000D02*
X102870000Y-90102081D01*
X102875000Y-90107081D02*
X102875000Y-91750000D01*
X80280000Y-95380000D02*
X80295000Y-95380000D01*
X83925000Y-91750000D02*
X102875000Y-91750000D01*
X80295000Y-95380000D02*
X83925000Y-91750000D01*
X115570000Y-90102081D02*
X115575000Y-90107081D01*
X115570000Y-88900000D02*
X115570000Y-90102081D01*
X115550000Y-90122081D02*
X115570000Y-90102081D01*
X115550000Y-94350000D02*
X115550000Y-90122081D01*
X114100000Y-95800000D02*
X115550000Y-94350000D01*
X84050000Y-95800000D02*
X114100000Y-95800000D01*
X82280000Y-99115000D02*
X82280000Y-97570000D01*
X82280000Y-97570000D02*
X84050000Y-95800000D01*
X107325000Y-93125000D02*
X107950000Y-92500000D01*
X84275000Y-93125000D02*
X107325000Y-93125000D01*
X81080000Y-96320000D02*
X84275000Y-93125000D01*
X81080000Y-99115000D02*
X81080000Y-96320000D01*
X107950000Y-88900000D02*
X107950000Y-92500000D01*
X107950000Y-92500000D02*
X107950000Y-92675000D01*
X97790000Y-90510000D02*
X97790000Y-88900000D01*
X83040000Y-90510000D02*
X97790000Y-90510000D01*
X79480000Y-99115000D02*
X79480000Y-94070000D01*
X79480000Y-94070000D02*
X83040000Y-90510000D01*
X100330000Y-90102081D02*
X100330000Y-88900000D01*
X79880000Y-94795000D02*
X83475000Y-91200000D01*
X79880000Y-99115000D02*
X79880000Y-94795000D01*
X83475000Y-91200000D02*
X100300000Y-91200000D01*
X100300000Y-91200000D02*
X100325000Y-91175000D01*
X100325000Y-91175000D02*
X100325000Y-90107081D01*
X100325000Y-90107081D02*
X100330000Y-90102081D01*
X105410000Y-92240000D02*
X105410000Y-88900000D01*
X84435000Y-92240000D02*
X105410000Y-92240000D01*
X80680000Y-99115000D02*
X80680000Y-95995000D01*
X80680000Y-95995000D02*
X84435000Y-92240000D01*
X83080000Y-99115000D02*
X83080000Y-98330000D01*
X83660000Y-97750000D02*
X117825000Y-97750000D01*
X83080000Y-98330000D02*
X83660000Y-97750000D01*
X120550000Y-95025000D02*
X120650000Y-95025000D01*
X117825000Y-97750000D02*
X120550000Y-95025000D01*
X120650000Y-88900000D02*
X120650000Y-95025000D01*
X120650000Y-94425000D02*
X120650000Y-95025000D01*
X110490000Y-93190000D02*
X110490000Y-88900000D01*
X109930000Y-93750000D02*
X110490000Y-93190000D01*
X84450000Y-93750000D02*
X109930000Y-93750000D01*
X81480000Y-99115000D02*
X81480000Y-96720000D01*
X81480000Y-96720000D02*
X84450000Y-93750000D01*
X83480000Y-99055000D02*
X83475000Y-99050000D01*
X83480000Y-99115000D02*
X83480000Y-99055000D01*
X83480000Y-98580000D02*
X83475000Y-98575000D01*
X83480000Y-99115000D02*
X83480000Y-98580000D01*
X123190000Y-88900000D02*
X123190000Y-97210000D01*
X121820000Y-98580000D02*
X83480000Y-98580000D01*
X123190000Y-97210000D02*
X121820000Y-98580000D01*
X82680000Y-99115000D02*
X82680000Y-97955000D01*
X118110000Y-88900000D02*
X118110000Y-95065000D01*
X82680000Y-97955000D02*
X82695000Y-97955000D01*
X82695000Y-97955000D02*
X83900000Y-96750000D01*
X116425000Y-96750000D02*
X118110000Y-95065000D01*
X83900000Y-96750000D02*
X116425000Y-96750000D01*
X94180000Y-113030000D02*
X94170000Y-113020000D01*
X95250000Y-113030000D02*
X94180000Y-113030000D01*
X83140000Y-113030000D02*
X95250000Y-113030000D01*
X79080000Y-101655000D02*
X79080000Y-108970000D01*
X79080000Y-108970000D02*
X83140000Y-113030000D01*
X97790000Y-111827919D02*
X97790000Y-113030000D01*
X97790000Y-110910000D02*
X97790000Y-111827919D01*
X82080000Y-110910000D02*
X97790000Y-110910000D01*
X79560000Y-108390000D02*
X82080000Y-110910000D01*
X79480000Y-101655000D02*
X79480000Y-108390000D01*
X79480000Y-108390000D02*
X79560000Y-108390000D01*
X100330000Y-111827919D02*
X100330000Y-113030000D01*
X100320000Y-111817919D02*
X100330000Y-111827919D01*
X100320000Y-110470000D02*
X100320000Y-111817919D01*
X82550000Y-110470000D02*
X100320000Y-110470000D01*
X79880000Y-101655000D02*
X79880000Y-107800000D01*
X79880000Y-107800000D02*
X82550000Y-110470000D01*
X102870000Y-111827919D02*
X102870000Y-113030000D01*
X102870000Y-110000000D02*
X102870000Y-111827919D01*
X83060000Y-110000000D02*
X102870000Y-110000000D01*
X80280000Y-101655000D02*
X80280000Y-107220000D01*
X80280000Y-107220000D02*
X83060000Y-110000000D01*
X105410000Y-111827919D02*
X105410000Y-113030000D01*
X80680000Y-101655000D02*
X80680000Y-106760000D01*
X80680000Y-106760000D02*
X83569990Y-109649990D01*
X83569990Y-109649990D02*
X105419990Y-109649990D01*
X105419990Y-109649990D02*
X105420000Y-109650000D01*
X105420000Y-109650000D02*
X105420000Y-111817919D01*
X105420000Y-111817919D02*
X105410000Y-111827919D01*
X123190000Y-103940000D02*
X123190000Y-113030000D01*
X122510000Y-103260000D02*
X123190000Y-103940000D01*
X84460000Y-103260000D02*
X122510000Y-103260000D01*
X83480000Y-101655000D02*
X83480000Y-102280000D01*
X83480000Y-102280000D02*
X84460000Y-103260000D01*
X83080000Y-101655000D02*
X83080000Y-102810000D01*
X83080000Y-102810000D02*
X83110000Y-102810000D01*
X83110000Y-102810000D02*
X84310000Y-104010000D01*
X119630000Y-104010000D02*
X120650000Y-105030000D01*
X84310000Y-104010000D02*
X119630000Y-104010000D01*
X120650000Y-113030000D02*
X120650000Y-105030000D01*
X120650000Y-105030000D02*
X120650000Y-105000000D01*
X118110000Y-106270000D02*
X118110000Y-113030000D01*
X116870000Y-105030000D02*
X118110000Y-106270000D01*
X84360000Y-105030000D02*
X116870000Y-105030000D01*
X82680000Y-101655000D02*
X82680000Y-103350000D01*
X82680000Y-103350000D02*
X84360000Y-105030000D01*
X115570000Y-107110000D02*
X115570000Y-113030000D01*
X114420000Y-105960000D02*
X115570000Y-107110000D01*
X84350000Y-105960000D02*
X114420000Y-105960000D01*
X82280000Y-101655000D02*
X82280000Y-103890000D01*
X82280000Y-103890000D02*
X84350000Y-105960000D01*
X81880000Y-104460000D02*
X81900000Y-104460000D01*
X81880000Y-101655000D02*
X81880000Y-104460000D01*
X81900000Y-104460000D02*
X84340000Y-106900000D01*
X113030000Y-111827919D02*
X113030000Y-113030000D01*
X84340000Y-106900000D02*
X111860000Y-106900000D01*
X111860000Y-106900000D02*
X113030000Y-108070000D01*
X113030000Y-108070000D02*
X113030000Y-111827919D01*
X107950000Y-109250000D02*
X107950000Y-113030000D01*
X107770000Y-109070000D02*
X107950000Y-109250000D01*
X84080000Y-109070000D02*
X107770000Y-109070000D01*
X81080000Y-101655000D02*
X81080000Y-106070000D01*
X81080000Y-106070000D02*
X84080000Y-109070000D01*
X110490000Y-108710000D02*
X110490000Y-113030000D01*
X109860000Y-108080000D02*
X110490000Y-108710000D01*
X84290000Y-108080000D02*
X109860000Y-108080000D01*
X81480000Y-101655000D02*
X81480000Y-105270000D01*
X81480000Y-105270000D02*
X84290000Y-108080000D01*
M02*
