G04 #@! TF.GenerationSoftware,KiCad,Pcbnew,(5.1.2)-2*
G04 #@! TF.CreationDate,2019-09-03T11:35:37+08:00*
G04 #@! TF.ProjectId,adapter,61646170-7465-4722-9e6b-696361645f70,rev?*
G04 #@! TF.SameCoordinates,Original*
G04 #@! TF.FileFunction,Legend,Top*
G04 #@! TF.FilePolarity,Positive*
%FSLAX46Y46*%
G04 Gerber Fmt 4.6, Leading zero omitted, Abs format (unit mm)*
G04 Created by KiCad (PCBNEW (5.1.2)-2) date 2019-09-03 11:35:37*
%MOMM*%
%LPD*%
G04 APERTURE LIST*
%ADD10C,0.120000*%
%ADD11C,0.150000*%
G04 APERTURE END LIST*
D10*
X77770000Y-101820000D02*
X78780000Y-101820000D01*
X77770000Y-98840000D02*
X77770000Y-99580000D01*
X84790000Y-101820000D02*
X84790000Y-101080000D01*
X77770000Y-98840000D02*
X78780000Y-98840000D01*
X77770000Y-101820000D02*
X77770000Y-101080000D01*
X84790000Y-98840000D02*
X84790000Y-99580000D01*
X84790000Y-98840000D02*
X83780000Y-98840000D01*
X84790000Y-101820000D02*
X83780000Y-101820000D01*
X93920000Y-87570000D02*
X93920000Y-90230000D01*
X121920000Y-87570000D02*
X93920000Y-87570000D01*
X121920000Y-90230000D02*
X93920000Y-90230000D01*
X121920000Y-87570000D02*
X121920000Y-90230000D01*
X123190000Y-87570000D02*
X124520000Y-87570000D01*
X124520000Y-87570000D02*
X124520000Y-88900000D01*
X93920000Y-114360000D02*
X93920000Y-113030000D01*
X95250000Y-114360000D02*
X93920000Y-114360000D01*
X96520000Y-114360000D02*
X96520000Y-111700000D01*
X96520000Y-111700000D02*
X124520000Y-111700000D01*
X96520000Y-114360000D02*
X124520000Y-114360000D01*
X124520000Y-114360000D02*
X124520000Y-111700000D01*
D11*
X80946666Y-92422380D02*
X80946666Y-93136666D01*
X80899047Y-93279523D01*
X80803809Y-93374761D01*
X80660952Y-93422380D01*
X80565714Y-93422380D01*
X81946666Y-93422380D02*
X81375238Y-93422380D01*
X81660952Y-93422380D02*
X81660952Y-92422380D01*
X81565714Y-92565238D01*
X81470476Y-92660476D01*
X81375238Y-92708095D01*
X124972380Y-89233333D02*
X125686666Y-89233333D01*
X125829523Y-89280952D01*
X125924761Y-89376190D01*
X125972380Y-89519047D01*
X125972380Y-89614285D01*
X125067619Y-88804761D02*
X125020000Y-88757142D01*
X124972380Y-88661904D01*
X124972380Y-88423809D01*
X125020000Y-88328571D01*
X125067619Y-88280952D01*
X125162857Y-88233333D01*
X125258095Y-88233333D01*
X125400952Y-88280952D01*
X125972380Y-88852380D01*
X125972380Y-88233333D01*
X92372380Y-113363333D02*
X93086666Y-113363333D01*
X93229523Y-113410952D01*
X93324761Y-113506190D01*
X93372380Y-113649047D01*
X93372380Y-113744285D01*
X92372380Y-112982380D02*
X92372380Y-112363333D01*
X92753333Y-112696666D01*
X92753333Y-112553809D01*
X92800952Y-112458571D01*
X92848571Y-112410952D01*
X92943809Y-112363333D01*
X93181904Y-112363333D01*
X93277142Y-112410952D01*
X93324761Y-112458571D01*
X93372380Y-112553809D01*
X93372380Y-112839523D01*
X93324761Y-112934761D01*
X93277142Y-112982380D01*
M02*
